<?xml version="1.0" encoding="UTF-8"?>
<svg viewBox="0 0 360 540" xmlns="http://www.w3.org/2000/svg" xmlns:xlink="http://www.w3.org/1999/xlink">
  <g transform="translate(0-512.36)">
    <rect x=".5" y="512.86" width="359" height="539" rx="29.944" fill="#fff" stroke="#000" />
    <g fill="#f55">
      <text x="8" y="585"
        style="font-size: 5rem; font-weight: bold; font-family: Arial; letter-spacing: -0.5rem">10</text>
      <text rotate="180" x="320" y="979"
        style="font-size: 5rem; font-weight: bold; font-family: Arial; letter-spacing: -0.5rem">01</text>

      <g transform="matrix(-1 0 0-1 355 1542.36)">
        <use xlink:href="#c" />
        <use xlink:href="#d" />
      </g>
      <path transform="translate(15, 0)"
        d="m100 562.36s8 13.333 17.333 22.667c9.333 9.333 22.667 17.333 22.667 17.333s-13.333 8-22.667 17.333c-9.333 9.333-17.333 22.667-17.333 22.667s-8-13.333-17.333-22.667c-9.333-9.333-22.667-17.333-22.667-17.333s13.333-8 22.667-17.333c9.333-9.333 17.333-22.667 17.333-22.667" />
      <path transform="translate(-15, 10)"
        d="m330 932.36s3 5 6.5 8.5 8.5 6.5 8.5 6.5-5 3-8.5 6.5-6.5 8.5-6.5 8.5-3-5-6.5-8.5-8.5-6.5-8.5-6.5 5-3 8.5-6.5 6.5-8.5 6.5-8.5" />
      <path transform="translate(15, -10)"
        d="m30 602.36s3 5 6.5 8.5 8.5 6.5 8.5 6.5-5 3-8.5 6.5-6.5 8.5-6.5 8.5-3-5-6.5-8.5-8.5-6.5-8.5-6.5 5-3 8.5-6.5 6.5-8.5 6.5-8.5" />
      <path transform="translate(-15, 0)"
        d="m260 562.36s8 13.333 17.333 22.667c9.333 9.333 22.667 17.333 22.667 17.333s-13.333 8-22.667 17.333c-9.333 9.333-17.333 22.667-17.333 22.667s-8-13.333-17.333-22.667c-9.333-9.333-22.667-17.333-22.667-17.333s13.333-8 22.667-17.333c9.333-9.333 17.333-22.667 17.333-22.667" />
      <path transform="translate(-15, 0)"
        d="m260 682.36s8 13.333 17.333 22.667c9.333 9.333 22.667 17.333 22.667 17.333s-13.333 8-22.667 17.333c-9.333 9.333-17.333 22.667-17.333 22.667s-8-13.333-17.333-22.667c-9.333-9.333-22.667-17.333-22.667-17.333s13.333-8 22.667-17.333c9.333-9.333 17.333-22.667 17.333-22.667" />
      <path transform="translate(-15, 0)"
        d="m260 802.36s8 13.333 17.333 22.667c9.333 9.333 22.667 17.333 22.667 17.333s-13.333 8-22.667 17.333c-9.333 9.333-17.333 22.667-17.333 22.667s-8-13.333-17.333-22.667c-9.333-9.333-22.667-17.333-22.667-17.333s13.333-8 22.667-17.333c9.333-9.333 17.333-22.667 17.333-22.667" />
      <path transform="translate(-15, 0)"
        d="m260 922.36s8 13.333 17.333 22.667c9.333 9.333 22.667 17.333 22.667 17.333s-13.333 8-22.667 17.333c-9.333 9.333-17.333 22.667-17.333 22.667s-8-13.333-17.333-22.667c-9.333-9.333-22.667-17.333-22.667-17.333s13.333-8 22.667-17.333c9.333-9.333 17.333-22.667 17.333-22.667" />
      <path transform="translate(15, 0)"
        d="m100 682.36s8 13.333 17.333 22.667c9.333 9.333 22.667 17.333 22.667 17.333s-13.333 8-22.667 17.333c-9.333 9.333-17.333 22.667-17.333 22.667s-8-13.333-17.333-22.667c-9.333-9.333-22.667-17.333-22.667-17.333s13.333-8 22.667-17.333c9.333-9.333 17.333-22.667 17.333-22.667" />
      <path transform="translate(15, 0)"
        d="m100 802.36s8 13.333 17.333 22.667c9.333 9.333 22.667 17.333 22.667 17.333s-13.333 8-22.667 17.333c-9.333 9.333-17.333 22.667-17.333 22.667s-8-13.333-17.333-22.667c-9.333-9.333-22.667-17.333-22.667-17.333s13.333-8 22.667-17.333c9.333-9.333 17.333-22.667 17.333-22.667" />
      <path transform="translate(15, 0)"
        d="m100 922.36s8 13.333 17.333 22.667c9.333 9.333 22.667 17.333 22.667 17.333s-13.333 8-22.667 17.333c-9.333 9.333-17.333 22.667-17.333 22.667s-8-13.333-17.333-22.667c-9.333-9.333-22.667-17.333-22.667-17.333s13.333-8 22.667-17.333c9.333-9.333 17.333-22.667 17.333-22.667" />
      <path
        d="m180 622.36s8 13.333 17.333 22.667c9.333 9.333 22.667 17.333 22.667 17.333s-13.333 8-22.667 17.333c-9.333 9.333-17.333 22.667-17.333 22.667s-8-13.333-17.333-22.667c-9.333-9.333-22.667-17.333-22.667-17.333s13.333-8 22.667-17.333c9.333-9.333 17.333-22.667 17.333-22.667" />
      <path
        d="m180 862.36s8 13.333 17.333 22.667c9.333 9.333 22.667 17.333 22.667 17.333s-13.333 8-22.667 17.333c-9.333 9.333-17.333 22.667-17.333 22.667s-8-13.333-17.333-22.667c-9.333-9.333-22.667-17.333-22.667-17.333s13.333-8 22.667-17.333c9.333-9.333 17.333-22.667 17.333-22.667" />
    </g>
  </g>
</svg>