<?xml version="1.0" encoding="UTF-8"?>
<svg viewBox="0 0 360 540" xmlns="http://www.w3.org/2000/svg">
  <g transform="translate(-30, 1227.6)">
    <rect x="30.5" y="-1227.1" width="359" height="539" rx="29.944" fill="#fff" stroke="#000" />
    <g fill="#f55">
      <text x="47" y="-1155" style="font-size: 5rem; font-weight: bold; font-family: Arial">A</text>
      <text x="374.5" y="-765" rotate="180" style="font-size: 5rem; font-weight: bold; font-family: Arial">A</text>
      <path
        d="m210-997.64s8 13.333 17.333 22.667c9.333 9.333 22.667 17.333 22.667 17.333s-13.333 8-22.667 17.333c-9.333 9.333-17.333 22.667-17.333 22.667s-8-13.333-17.333-22.667c-9.333-9.333-22.667-17.333-22.667-17.333s13.333-8 22.667-17.333c9.333-9.333 17.333-22.667 17.333-22.667" />
      <path transform="translate(-15, 0)"
        d="m360-807.64s3 5 6.5 8.5 8.5 6.5 8.5 6.5-5 3-8.5 6.5-6.5 8.5-6.5 8.5-3-5-6.5-8.5-8.5-6.5-8.5-6.5 5-3 8.5-6.5 6.5-8.5 6.5-8.5" />
      <path transform="translate(15, 0)"
        d="m60-1137.6s3 5 6.5 8.5 8.5 6.5 8.5 6.5-5 3-8.5 6.5-6.5 8.5-6.5 8.5-3-5-6.5-8.5-8.5-6.5-8.5-6.5 5-3 8.5-6.5 6.5-8.5 6.5-8.5" />
    </g>
  </g>
</svg>