<?xml version="1.0" encoding="UTF-8"?>
<svg version="1.1" viewBox="0 0 81 81" xmlns="http://www.w3.org/2000/svg">
  <g transform="translate(-169,428)">
    <path
      d="m209.5-427.13c-3.999-0.081-6.667 1.333-9.333 4-2.667 2.667-4 5.333-4 9.333s1.518 6.372 4 9.333c2.375 2.833 4 4 5.333 6.666 1.333 2.667 2.667 8 2.667 10.666v4h-2.67c-2.667 0-8-2.667-9.333-4l-4-4c-2.667-2.667-5.333-4-9.333-4s-6.667 1.333-9.333 4c-2.667 2.667-4 5.333-4 9.333s1.333 6.666 4 9.333 5.333 4 9.333 4 6.667-1.333 9.333-4l4-4c1.333-1.333 6.667-4 9.333-4h2.667c-0.066 3.776-0.346 10.37-1.333 13.333-1.333 4-4 8-6.667 10.666-2.667 2.667-10.667 8-10.667 8v1.333s13.333-2.667 16-2.667h8c2.667 0 16 2.667 16 2.667v-1.333s-8-5.333-10.667-8-5.333-6.666-6.667-10.666c-0.988-2.963-1.267-9.557-1.333-13.333h2.667c2.667 0 8 2.667 9.333 4l4 4c2.667 2.667 5.333 4 9.333 4s6.667-1.333 9.333-4c2.667-2.667 4-5.333 4-9.333s-1.333-6.666-4-9.333-5.333-4-9.333-4-6.667 1.333-9.333 4l-4 4c-1.333 1.333-6.667 4-9.333 4h-2.667v-4c0-2.667 1.333-8 2.667-10.666 1.333-2.667 2.667-4 5.333-6.666 2.653-2.653 4-5.333 4-9.333s-1.333-6.666-4-9.333-5.333-4-9.333-4" />
  </g>
</svg>