<?xml version="1.0" encoding="UTF-8"?>
<svg viewBox="0 0 81 81" xmlns="http://www.w3.org/2000/svg">
  <g transform="translate(-169.5, 998)">
    <g fill="#f55">
      <path
        d="m210-997.64s8 13.333 17.333 22.667c9.333 9.333 22.667 17.333 22.667 17.333s-13.333 8-22.667 17.333c-9.333 9.333-17.333 22.667-17.333 22.667s-8-13.333-17.333-22.667c-9.333-9.333-22.667-17.333-22.667-17.333s13.333-8 22.667-17.333c9.333-9.333 17.333-22.667 17.333-22.667" />
      d="m360-807.64s3 5 6.5 8.5 8.5 6.5 8.5 6.5-5 3-8.5 6.5-6.5 8.5-6.5 8.5-3-5-6.5-8.5-8.5-6.5-8.5-6.5 5-3 8.5-6.5
      6.5-8.5 6.5-8.5" />
      d="m60-1137.6s3 5 6.5 8.5 8.5 6.5 8.5 6.5-5 3-8.5 6.5-6.5 8.5-6.5 8.5-3-5-6.5-8.5-8.5-6.5-8.5-6.5 5-3 8.5-6.5
      6.5-8.5 6.5-8.5" />
    </g>
  </g>
</svg>