<?xml version="1.0" encoding="UTF-8"?>
<svg version="1.1" viewBox="0 0 81 81" xmlns="http://www.w3.org/2000/svg">
  <g transform="translate(-139,-742.36)">
    <path
      d="m180 742.36c-1.333 6.667-2.855 8.392-5.333 12-2.135 3.109-5.122 5.562-8 8-2.917 2.471-6.248 4.408-9.333 6.667-3.586 2.625-7.819 4.588-10.667 8-3.184 3.815-6.667 8.364-6.667 13.333 0 3.975 2.408 7.975 5.333 10.667 3.523 3.241 8.548 5.444 13.333 5.333 5.369-0.124 10.8-2.94 14.667-6.667 2.862-2.758 5.333-10.667 5.333-10.667v2.667c0 1.333-0.133 7.29-1.333 10.667-1.404 3.951-3.83 7.579-6.667 10.667-3.01 3.273-10.667 8-10.667 8v1.333s10.612-2.221 16-2.667c2.658-0.22 5.342-0.22 8 0 5.388 0.446 16 2.667 16 2.667v-1.333s-7.66-4.727-10.667-8c-2.836-3.088-5.263-6.716-6.667-10.667-1.2-3.376-1.333-10.667-1.333-10.667v-2.667s2.471 7.908 5.333 10.667c3.867 3.726 9.298 6.543 14.667 6.667 4.786 0.11 9.811-2.092 13.333-5.333 2.925-2.692 5.333-6.691 5.333-10.667 0-4.969-3.483-9.518-6.667-13.333-2.848-3.412-7.08-5.375-10.667-8-3.085-2.258-6.416-4.195-9.333-6.667-2.878-2.438-5.865-4.891-8-8-2.478-3.608-4-5.333-5.333-12" />
  </g>
</svg>